<?xml version="1.0" encoding="UTF-8" standalone="no"?><svg
   xmlns:dc="http://purl.org/dc/elements/1.1/"
   xmlns:cc="http://creativecommons.org/ns#"
   xmlns:rdf="http://www.w3.org/1999/02/22-rdf-syntax-ns#"
   xmlns:svg="http://www.w3.org/2000/svg"
   xmlns="http://www.w3.org/2000/svg"
   xmlns:sodipodi="http://sodipodi.sourceforge.net/DTD/sodipodi-0.dtd"
   xmlns:inkscape="http://www.inkscape.org/namespaces/inkscape"
   height="587.25024"
   width="563.18665"
   version="1.1"
   id="svg2"
  
  ><defs
     id="defs48"><inkscape:perspective
      
      
      
      
      
       id="perspective52" /><inkscape:perspective
       id="perspective2841"
      
      
      
      
       /><inkscape:perspective
       id="perspective2854"
      
      
      
      
       /><inkscape:perspective
       id="perspective2867"
      
      
      
      
       /><inkscape:perspective
       id="perspective2880"
      
      
      
      
       /><inkscape:perspective
       id="perspective2893"
      
      
      
      
       /><inkscape:perspective
       id="perspective2884"
      
      
      
      
       /><inkscape:perspective
       id="perspective2845"
      
      
      
      
       /><inkscape:perspective
       id="perspective2858"
      
      
      
      
       /></defs><desc
     id="desc4">flag of Uganda</desc><path
     d="M455.91 0L431.06 22.84L405.22 48.59L371 45.94L354.91 34.25L340.78 42.22L323.09 46.97L291.84 48.56L269.53 61.72L270.5 62.75L271.44 68L270.28 72.47L258.66 70.5L257.84 67.16L254.87 64.88L245.44 64.91L242.56 53.28L232.44 40.75L231.16 40.22L228.62 40.63L228.84 42.75L221.87 48.25L219.12 51.91L206.94 55.09L202.44 58.09L176.06 43.81L164.53 43.78L159.12 47.03L157.16 49.34L153.47 49.28L151.84 52.16L149.59 53.34L144.94 53.09L141.69 56.69L140.41 60.88L134.09 69.69L131.87 75.31L133.31 75.81L137.56 73.44L139.59 74.28L140.31 84.06L135.69 90.34L135.12 93.41L130.12 97.88L502.37 97.88L497.78 85.84L497.62 83.66L499.31 79.84L497.19 75.47L500.62 74.09L502.62 71.81L503.84 56.31L498.41 54.16L495.78 50.19L492.66 49.13L489.62 50.19L487.69 53.94L487.31 51.28L483.94 48.12L482.44 44.62L474.19 46.06L473.94 45.16L475.87 43.22L472.53 42.16L474.22 40.12L479.12 39.16L479.03 35.69L477.16 34.31L472.75 35.5L465.84 35.16L466.03 33.81L468.69 32.47L469.78 26.87L462.5 21.22L462.84 19.31L465.34 18.28L465.91 17.06L464.03 12.97L461.84 10.84L462.78 6.53L461.03 3.53L455.91 0ZM-350.72 293.62L-363.72 309.38L-368.75 311.31L-371.88 311.69L-374.59 310.69L-376.94 313.19L-377.69 315.69L-379 315.16L-384.66 319.28L-385.72 321.94L-386.91 322.56L-388.84 331.88L-391.94 334.63L-392.25 336.31L-393.72 336.78L-394.31 340L-397.09 343.16L-401.66 342.22L-413.56 347.66L-416.38 352.69L-414.88 357.91L-417.16 368.03L-415.41 373.06L-414.72 381L-423.28 391.5L11.25 391.5L10.19 387.38L13.66 384.34L13.22 379.59L15.06 374.41L20.81 369.84L27.97 367.94L29.38 364.63L32.88 361.06L33.47 355.63L43.19 350.53L44.28 346.5L45.69 346.06L50.09 337.41L51.22 327.72L53.66 320.81L58.69 320.84L60.03 315.5L66.34 313.66L70.53 309.81L82.91 307.78L86 300.13L82.25 293.63L-350.72 293.63Z"
     id="rect6" /><path
     style="fill:#d90000;fill-opacity:1"
     d="M154.75 195.75L155 197.44L159.72 200.66L161.31 198.88L162.81 199.25L167.44 197.88L167.87 205.31L178.34 212.25L178.37 216.09L170.44 229.22L162.41 237.75L150.5 253.22L116.03 280.44L105.19 293.63L538.16 293.63L538.62 292.56L535.72 287.53L541.62 285.47L543.53 286.06L543.25 283.91L545.72 276.34L548 273.91L554.06 271.31L556.37 267.25L559.34 260.91L563.19 236.5L557.97 228.75L552.19 195.75L154.75 195.75ZM10.09 489.41L9.75 491.22L11.12 492.63L9.44 495.38L7.91 495.88L8.87 499.03L5.47 507L5.41 515.63L6.75 518.66L5.19 522.38L6.09 526.81L5.34 527.63L1.5 527.53L2.09 533.06L0.78 537.25L1.31 546.03L0.06 550.41L0.87 553.47L0 556.06L2.84 560.03L2 566L3.47 570.69L2.28 577.88L9.81 577.56L15.47 573.03L18.41 573.06L20.63 575.19L22.41 575.38L26.16 569.84L29.22 574.38L31.28 574.94L32.25 581.59L34.87 586.78L36.06 587.25L42.56 584.31L45.87 581.06L49.06 582.34L49.78 578.81L52.37 577.25L56.31 577L58.12 574.38L60.34 573.94L61.84 568.72L61.41 566.63L62.75 566.03L64.5 566.78L64.78 565.25L68.22 563.59L69.53 561.13L74.12 557.38L74.94 553.25L79.19 551L79.03 548.56L80.56 543.94L84.37 544.31L89.56 542.81L93.91 542.72L98.25 544.53L104.19 543.03L110.87 543.56L115.87 538.34L120.06 537.38L448.69 537.66L447.91 489.41L10.09 489.41Z"
     id="rect10" /><path
     style="fill:#fcdc04;fill-opacity:1"
     d="M130.12 97.88L124.22 118.34L122.59 120.44L124.34 123.66L128 125.78L131.03 129.28L134.62 137.41L134.72 142.56L133.59 145.81L129.31 150.53L124.37 164.13L121.87 167.34L122.34 175.63L120.78 180.03L121.69 183.41L123.81 182.97L129.81 184.44L135.19 192.94L140.22 193.59L141.19 187.88L142.87 186.53L145.41 186.28L153.53 192.47L154.75 195.75L552.19 195.75L550.81 186L554.75 181L552.69 178.28L552.09 174.78L549.34 173.75L548.28 167.63L547.34 167.66L546.66 169.56L545.22 169.34L536.62 156.91L535.97 144.5L529.28 138.22L524.12 139.16L521.75 135.38L517.94 133.56L514.81 115.94L513.03 111.59L509.22 110.03L507.25 110.44L504.06 107.56L502.37 97.88L130.12 97.88ZM-97.5 293.62L-100.69 299.97L-105.25 319.53L-110.19 319.91L-111.72 322.44L-113.5 323.16L-114.13 328.56L-115.47 328.66L-115.94 329.69L-115.41 333.72L-112.63 339.56L-114.31 342.31L-121.81 384.69L-119.88 386.09L-120.03 391.53L317.78 391.53L318.44 381.81L321.59 366.84L321.09 365.91L323.5 351.28L316.87 325.84L331.91 304.56L336.37 299.75L337.53 297.03L337.03 293.62L-97.5 293.62Z"
     id="rect8" /><path
     d="m398.84 293.63a90.49 91.43 0 0 1 -180.98 0 90.49 91.43 0 1 1 180.98 0z"
     id="path16"
     style="fill:#fffdff;stroke:none" /><path
     style="fill:#d90000;stroke:#000000;stroke-width:0.97376847000000000;fill-opacity:1"
     d="m292.39 223.53 -5.87 -10.93c2.27 -2.29 6.08 -4.06 12.16 -4.06 0 0.42 -0.62 11.98 -0.62 11.98l-5.67 3.02z"
     id="path18" /><path
     style="fill:#fcdc04;stroke:#000000;stroke-width:0.97376847000000000;fill-opacity:1"
     d="m298.05 220.62 0.82 -12.08c0 0 12.16 -0.73 18.76 7.29 0.1 -0.1 -6.49 9.37 -6.49 9.37l-13.09 -4.58z"
     id="path20" /><path
     style="fill:#d90000;stroke:#000000;stroke-width:0.97376847000000000;fill-opacity:1"
     d="m311.35 225.1 5.98 -9.37c4.02 4.27 5.67 7.29 6.29 11.87 0.1 0.1 -9.48 2.39 -9.48 2.29 0 -0.1 -2.68 -4.69 -2.78 -4.79z"
     id="path22" /><path
     style="fill:#000000;stroke:#000000;stroke-width:0.97376847"
     d="m295.37 379.83c0 0 11.23 -13.02 33.08 -10.2 -3.3 -5.42 -13.91 -4.79 -13.91 -4.79 0 0 -3.3 -25.3 -0.72 -26.55 2.58 -1.25 13.5 0.1 13.5 0.1 1.44 0 3.92 -3.96 1.96 -6.46 -1.96 -2.5 -7.73 -12.08 -5.36 -13.95 2.37 -1.87 15.25 1.04 15.25 1.04l-36.38 -47.07c0 0 -3.71 -17.7 3.71 -26.24 8.97 -7.5 8.04 -15.62 7.73 -15.52 -1.24 -8.23 -13.6 -14.16 -21.95 -6.56 -4.95 6.04 -1.65 10.62 -1.65 10.62 0 0 -12.99 3.54 -13.5 5.83 -0.52 2.29 14.63 -0.42 14.63 -0.42l-1.44 10.52c0 0 -29.48 27.07 -6.91 50.5 0.21 -0.1 0.72 -1.04 0.72 -1.04 0 0 7.94 9.89 16.28 12.08 7.83 8.12 7.11 6.87 7.11 6.87 0 0 1.55 12.81 0.1 15.31 -1.96 -0.62 -21.95 -1.35 -24.94 -0.21 -2.68 0.83 -12.99 0.31 -10.41 17.29 1.96 -4.58 3.71 -8.64 3.71 -8.64 0 0 -0.31 6.14 2.16 8.33 -0.41 -6.46 2.37 -10.83 2.37 -10.83 0 0 0.52 7.08 2.06 8.12 1.55 1.04 1.55 -11.45 10.1 -10.41 8.55 1.04 14.74 0.73 14.74 0.73 0 0 2.89 24.47 1.96 26.76 -6.18 -1.46 -20.92 0.62 -21.85 4.37 8.66 -0.52 12.68 0.52 12.68 0.52 0 0 -7.01 6.25 -4.84 9.89z"
     id="path24" /><path
     style="fill:#9ca69c;stroke:#9ca69c;stroke-width:0.97376847"
     d="m298.85 246.31c0 0 -21.45 23.88 -12.19 42.16 0.49 -2.55 0.28 -4.15 0.59 -4.05 -0.52 -0.31 2.66 2.2 2.42 1.71 0.07 -1.32 -0.97 -4.15 -0.97 -4.15 0.97 0.24 1.94 0.49 2.9 0.73 -0.56 -1.06 -1.13 -2.12 -1.69 -3.18 1.37 0.16 2.74 0.33 4.11 0.49 0 0 -1.45 -3.91 -0.97 -3.91 0.48 0 3.39 0.24 3.39 0.24 -6.1 -11.06 -0.35 -20.24 2.42 -30.05z"
     id="path26" /><path
     style="fill:#9ca69c;stroke:#9ca69c;stroke-width:0.97376847"
     d="m306.3 225.82c0 0 1.13 8.23 -3.3 10.62 -0.72 0.52 -3.5 1.46 -3.09 3.12 0.52 2.29 1.75 1.87 3.5 1.46 4.64 -0.83 10 -10.83 2.89 -15.2z"
     id="path28" /><path
     style="fill:#ffffff"
     d="m298.36 232.91a1.75 1.77 0 0 1 -3.5 0 1.75 1.77 0 1 1 3.5 0z"
     id="path30" /><path
     style="fill:#d90000;stroke:#000000;stroke-width:0.97376847000000000;fill-opacity:1"
     d="m291.46 239.78c-1.13 0.94 -7.11 7.19 -1.24 9.48 6.08 -1.67 4.43 -2.81 5.77 -4.17 0.03 -2.81 -3.02 -3.54 -4.54 -5.31z"
     id="path32" /><path
     style="fill:#9ca69c;stroke:#9ca69c;stroke-width:0.97376847"
     d="m304.44 298.82c-0.31 1.35 -1.65 6.35 0.21 10.2 5.15 -2.19 7.52 -1.56 9.28 -0.42 -4.22 -3.44 -5.87 -4.89 -9.48 -9.79z"
     id="path34" /><path
     style="fill:#ffffff;stroke:#ffffff;stroke-width:0.97376847"
     d="m313.31 322.46 0.31 11.66c0 0 4.02 0.73 5.87 0 1.86 -0.73 -0.1 -8.12 -6.18 -11.66z"
     id="path36" /><path
     style="fill:#9ca69c;stroke:#000000;stroke-width:0.97376847"
     d="m342.47 323.92c0 0 -7.42 -18.12 -26.38 -22.7 -18.96 -4.58 -16.49 -24.99 -14.94 -26.24 0.82 -1.77 1.44 -4.48 6.91 -1.87 5.46 2.6 30.61 15.41 34.22 16.04 3.61 0.62 0.52 35.2 0.21 34.78z"
     id="path38" /><path
     style="fill:#d90000;stroke:#000000;stroke-width:0.97376847000000000;fill-opacity:1"
     d="m324.44 301.11c-0.31 0.21 25.35 15.31 17.62 28.32 7.32 -4.89 4.95 -13.43 4.95 -13.43 0 0 5.98 15.72 -8.55 23.43 1.55 1.35 2.58 1.04 2.58 1.04l-2.47 2.5c0 0 -1.13 1.87 8.66 -2.92 -2.68 2.19 -2.89 3.75 -2.89 3.75 0 0 0.72 2.08 7.11 -3.54 -5.15 5.62 -6.29 8.54 -6.29 8.43 13.91 -1.25 44.21 -46.96 -9.58 -60.5 2.89 3.02 2.47 2.6 2.47 2.6l-13.6 10.31z"
     id="path40" /><path
     style="fill:#ffffff;stroke:#000000;stroke-width:0.97376847"
     d="m325.57 296.63c3.5 2.5 4.74 3.33 5.15 4.58 -3.19 -0.73 -6.08 -0.52 -6.08 -0.52 0 0 -6.9 -6.66 -8.14 -7.18 -0.93 0 -6.29 -3.44 -6.29 -3.44 -2.68 -1.35 -5.15 -10.73 4.74 -8.02 10.2 4.89 11.65 5.31 11.65 5.31 4.05 1.28 8.11 2.57 12.16 3.85 2.34 2.64 4.67 5.28 7.01 7.91 0 0 -12.47 -6.25 -14.02 -6.35 3.4 2.81 5.36 6.66 5.36 6.66 -3.95 -1.15 -7.39 -2.19 -11.54 -2.81z"
     id="path42" /><path
     style="stroke:#ffffff;stroke-width:0.97376847"
     d="m277.03 240.72c0 0 11.96 -2.92 13.4 -2.5"
     id="path44" /></svg>
